<svg width="32" height="32" viewBox="0 0 32 32" fill="none" xmlns="http://www.w3.org/2000/svg">
  <defs>
    <!-- Primary gradient: Purple to Blue -->
    <linearGradient id="grad1" x1="0%" y1="0%" x2="100%" y2="100%">
      <stop offset="0%" style="stop-color:#9333EA;stop-opacity:1" />
      <stop offset="100%" style="stop-color:#3B82F6;stop-opacity:1" />
    </linearGradient>
    <!-- Accent gradient: Cyan to Green -->
    <linearGradient id="grad2" x1="0%" y1="0%" x2="100%" y2="100%">
      <stop offset="0%" style="stop-color:#06B6D4;stop-opacity:1" />
      <stop offset="100%" style="stop-color:#10B981;stop-opacity:1" />
    </linearGradient>
    <!-- Filter for subtle glow -->
    <filter id="glow">
      <feGaussianBlur stdDeviation="0.5" result="coloredBlur"/>
      <feMerge>
        <feMergeNode in="coloredBlur"/>
        <feMergeNode in="SourceGraphic"/>
      </feMerge>
    </filter>
  </defs>
  
  <!-- Outer gradient background -->
  <rect width="32" height="32" rx="8" fill="url(#grad1)"/>
  
  <!-- Inner subtle background for depth -->
  <rect x="1" y="1" width="30" height="30" rx="7" fill="url(#grad1)" opacity="0.3"/>
  
  <!-- Left PDF document (top) -->
  <g opacity="0.95">
    <rect x="6" y="6" width="8" height="11" rx="1" fill="white"/>
    <line x1="8" y1="8" x2="12" y2="8" stroke="url(#grad1)" stroke-width="0.8" stroke-linecap="round"/>
    <line x1="8" y1="10" x2="11" y2="10" stroke="url(#grad1)" stroke-width="0.8" stroke-linecap="round"/>
    <line x1="8" y1="12" x2="12" y2="12" stroke="url(#grad1)" stroke-width="0.8" stroke-linecap="round"/>
    <line x1="8" y1="14" x2="10" y2="14" stroke="url(#grad1)" stroke-width="0.8" stroke-linecap="round"/>
  </g>
  
  <!-- Right PDF document (bottom) -->
  <g opacity="0.95">
    <rect x="18" y="15" width="8" height="11" rx="1" fill="white"/>
    <line x1="20" y1="17" x2="24" y2="17" stroke="url(#grad2)" stroke-width="0.8" stroke-linecap="round"/>
    <line x1="20" y1="19" x2="23" y2="19" stroke="url(#grad2)" stroke-width="0.8" stroke-linecap="round"/>
    <line x1="20" y1="21" x2="24" y2="21" stroke="url(#grad2)" stroke-width="0.8" stroke-linecap="round"/>
    <line x1="20" y1="23" x2="22" y2="23" stroke="url(#grad2)" stroke-width="0.8" stroke-linecap="round"/>
  </g>
  
  <!-- Split indicator line with glow -->
  <g filter="url(#glow)">
    <line x1="16" y1="4" x2="16" y2="28" stroke="white" stroke-width="1.5" stroke-linecap="round" opacity="0.8"/>
    <!-- Arrow down top half -->
    <path d="M 14.5 10 L 16 12 L 17.5 10" stroke="url(#grad2)" stroke-width="1" fill="none" stroke-linecap="round" stroke-linejoin="round"/>
    <!-- Arrow up bottom half -->
    <path d="M 14.5 22 L 16 20 L 17.5 22" stroke="url(#grad2)" stroke-width="1" fill="none" stroke-linecap="round" stroke-linejoin="round"/>
  </g>
</svg>